<svg width="5856" height="1561" viewBox="0 0 5856 1561" fill="none" xmlns="http://www.w3.org/2000/svg">
<path d="M2101.17 459.076C2063.74 459.076 1997.07 562.28 1997.07 646.827C1997.07 899.904 2327.07 1110.15 2284.12 1338.43C2252.47 1503.39 2042.22 1537.38 1960.87 1315.84C1938.32 1250.31 1969.92 1135.09 1983.47 1062.71C2019.26 883.189 1836.87 866.321 1834.26 1087.3V1097.52C1834.53 1122.73 1836.45 1147.9 1839.99 1172.87C1786.25 1338.13 1662.66 1448.9 1522.51 1448.9C1289.71 1448.9 1240.01 1283.94 1233.15 1073.7C1267.11 1075.9 1298.81 1080.5 1330.31 1080.5C1416.16 1085 1504.15 1071.35 1579.01 1026.26C1613.77 1003.86 1643.68 974.718 1666.97 940.554C1690.27 906.391 1706.47 867.904 1714.61 827.37C1748.51 660.117 1628.71 506.359 1456.91 501.963C1454.04 501.963 1451.23 501.963 1448.42 501.963C1294.56 501.963 1182.28 624.233 1124.6 757.545C1066.62 892.697 1051.74 1074.06 1095.25 1218.51C1078.53 1388.07 1037.06 1478.39 955.251 1478.39C898.75 1478.39 905.551 1266 905.551 1175.63C901.051 1010.67 912.351 838.82 849.05 680.717C821.898 608.387 774.499 538.307 699.846 509.017C638.743 486.321 559.744 484.072 503.192 513.311C442.14 545.054 401.49 601.538 374.339 662.571C374.339 662.571 344.938 540.811 252.645 487.19C220.572 465.542 182.33 454.904 143.682 456.878C84.9825 458.565 40.4464 507.637 16.5166 557.22C4.34714 582.778 -23.1108 661.497 39.9351 638.699C47.2364 635.131 53.5817 629.874 58.4449 623.364C96.794 577.666 148.284 460.098 201.615 562.331C207.351 573.587 212.19 585.278 216.085 597.295C216.085 597.959 216.085 598.777 216.085 599.442C218.335 649.178 218.335 696.563 218.335 744.101C218.335 834.475 220.636 924.951 225.084 1013.03C229.635 1155.49 234.135 1297.8 247.685 1437.91C249.591 1449.1 250.361 1460.45 249.986 1471.8V1476.4C249.703 1480.09 250.163 1483.8 251.34 1487.31C252.517 1490.82 254.386 1494.07 256.837 1496.84C263.536 1514.89 274.887 1526.13 297.436 1523.99C333.587 1521.69 338.342 1489.99 342.688 1460.7L356.238 1259.51C363.09 1130.75 369.788 997.384 372.038 866.27C374.789 852.379 378.619 838.724 383.492 825.428C406.041 748.753 435.493 662.673 494.193 606.138C517.277 585.399 546.331 572.49 577.199 569.258C608.067 566.027 639.166 572.637 666.048 588.145C736.099 631.032 742.746 732.805 747.348 807.281C751.899 920.3 740.649 1035.52 749.7 1150.94C756.449 1270.6 776.8 1562.07 964.455 1544.07C1069.53 1533.85 1121.63 1452.37 1144.95 1329.13C1239.09 1482.99 1382.56 1523.37 1520.31 1516.98C1678.82 1516.98 1797.75 1416.64 1863.77 1274.33C1890.71 1354.23 1933.87 1420.37 1983.47 1467.25C2114.57 1587.01 2304.47 1543.92 2390.38 1342.93C2501.18 1083.05 2125.92 775.538 2125.92 513.413C2125.92 474.769 2115.8 459.076 2101.17 459.076ZM1230.9 1003.93C1230.9 886.359 1233.15 746.299 1300.96 642.277C1346.21 574.548 1459.46 522.563 1527.06 592.643C1579.11 648.871 1576.81 762.146 1563.21 832.175C1545.16 913.552 1493.16 979.033 1414.01 1005.97C1380.16 1017.76 1344.46 1023.38 1308.62 1022.58C1299.32 1022.58 1289.96 1022.33 1280.66 1021.87C1263.93 1019.7 1247.32 1016.66 1230.9 1012.77V1003.93Z" fill="url(#paint0_linear_987_71)"/>
<path d="M3052.67 997.131C3050.37 935.791 2998.42 945.146 2998.42 990.384C2998.42 1306.69 2892.17 1449.15 2804.12 1449.15C2740.77 1449.15 2686.52 1406.06 2670.72 1290.95C2659.47 1209.52 2659.47 1123.59 2657.22 1042.37C2654.87 915.703 2659.47 791.49 2663.97 664.976C2663.97 610.486 2663.97 555.996 2666.01 501.404C2677.06 500.586 2688.43 499.649 2700.12 498.592C2719.91 496.803 2738.31 494.707 2755.75 492.458C2817.42 488.165 2875.81 478.248 2921.62 456.677C3093.48 380.002 3016.63 275.98 2890.02 325.768C2822.22 352.808 2756.57 377.651 2670.72 397.995L2675.22 228.493V110.925C2675.22 72.5877 2684.22 31.899 2641.37 11.4524C2626.85 3.82378 2610.68 -0.108974 2594.27 0.00229711C2581.67 -0.028866 2569.17 2.42011 2557.51 7.20972C2512.31 23.0558 2516.6 70.5941 2514.61 111.181C2507.81 190.309 2503.26 269.642 2498.71 348.463C2496.87 368.91 2496.66 389.356 2496.61 408.576C2478.42 407.523 2460.32 405.303 2442.41 401.931C2292.7 372.539 2266.57 393.599 2291.88 434.492C2291.88 434.492 2322.87 490.72 2494.41 503.193C2494.77 615.138 2498.71 727.083 2498.71 836.83C2498.71 1135.25 2491.96 1519.34 2801.72 1519.34C3020.97 1519.13 3057.12 1143.94 3052.67 997.131Z" fill="url(#paint1_linear_987_71)"/>
<path d="M4319.66 896.432C4287.24 840.204 4256.57 783.362 4227.62 725.243C4200.32 670.65 4171.38 613.093 4173.99 550.373C4174.75 532.994 4184.21 512.905 4182.93 496.036C4182.97 494.461 4182.66 492.898 4182.04 491.451C4181.41 490.004 4180.49 488.709 4179.32 487.652C4178.15 486.595 4176.77 485.802 4175.27 485.326C4173.76 484.85 4172.18 484.702 4170.61 484.893C4166.05 485.042 4161.56 485.975 4157.32 487.653C4134.07 496.632 4113.76 511.886 4098.67 531.716C4067.53 571.075 4051.22 623.725 4051.22 673.922C4051.22 926.999 4381.33 1137.24 4338.33 1365.53C4306.67 1530.53 4096.37 1564.52 4015.07 1342.93C3992.42 1277.4 4024.02 1162.19 4037.62 1089.81C4073.82 909.006 3888.41 893.16 3888.41 1119.15C3888.34 1171.1 3895.32 1222.83 3909.17 1272.9C3895.83 1388.48 3866.63 1494.34 3802.82 1494.34H3800.62C3746.32 1476.25 3737.32 1408.31 3725.97 1356.33C3687.52 1128.14 3730.52 893.058 3739.52 651.277C3741.82 610.384 3753.07 565.401 3714.67 538.31C3699.06 527.424 3680.52 521.541 3661.49 521.441C3651 521.391 3640.6 523.298 3630.81 527.064C3594.61 540.457 3585.66 576.698 3581.11 612.838L3551.66 588.046C3502.01 549.555 3440.96 524.61 3377.81 522.566C3260.2 517.965 3163.05 596.991 3101.7 689.666C3002.29 836.625 2963.64 1028.77 2993.19 1202.72C3018.09 1354.13 3113.05 1534.98 3284.65 1546.17C3447.4 1555.27 3524.3 1365.43 3562.75 1236.61L3567.3 1225.31L3574.05 1263.65C3594.51 1374.52 3630.3 1555.02 3800.16 1555.02C3883.97 1555.02 3928.35 1476.91 3951.56 1380.3C3973.84 1422.53 4002.74 1460.93 4037.16 1494.03C4168.26 1613.75 4358.22 1570.71 4444.12 1369.67C4498.11 1243.1 4434.66 1105.5 4374.37 993.655C4357.04 961.094 4338.33 928.788 4319.66 896.432ZM3549.71 1049.22C3538.68 1117.51 3522.02 1184.77 3499.91 1250.31C3472.76 1324.89 3434.41 1412.96 3366.56 1458.2C3348.77 1468.66 3328.5 1474.17 3307.86 1474.15C3288.83 1473.85 3270.09 1469.45 3252.91 1461.25C3235.74 1453.04 3220.54 1441.23 3208.36 1426.61C3156.3 1365.58 3147 1275.2 3142.7 1198.43C3138.14 1110 3142.7 1021.34 3156.3 933.849C3167.6 850.273 3188.01 764.5 3230.91 692.221C3264.76 637.833 3314.56 597.145 3380.06 592.646C3454.71 590.397 3529.36 633.54 3570.01 696.72C3554.06 813.51 3547.27 931.37 3549.71 1049.22Z" fill="url(#paint2_linear_987_71)"/>
<path d="M4672.4 659.74C4688.72 659.906 4704.6 654.446 4717.37 644.28C4730.13 634.114 4739.01 619.861 4742.5 603.921L4746.13 593.187C4757.69 539.514 4714.38 506.289 4672.55 506.289C4642.95 506.289 4614 522.953 4605.82 560.983L4602.24 571.82C4593.19 616.547 4627.4 659.74 4672.4 659.74Z" fill="url(#paint3_linear_987_71)"/>
<path d="M5816.63 1376.5C5809.24 1379.92 5802.77 1385.05 5797.77 1391.48C5758.14 1435.85 5703.68 1551.98 5652.96 1448.52C5628.01 1397.41 5622.59 1329.37 5618.09 1273.86C5605.46 1118.11 5618.7 958.417 5632.97 803.586C5637.67 753.031 5644.06 702.324 5646.93 651.616C5649.18 610.723 5660.48 565.741 5622.08 538.649C5606.45 527.777 5587.89 521.895 5568.85 521.781C5558.45 521.751 5548.13 523.658 5538.42 527.403C5502.27 540.796 5493.17 577.037 5488.62 613.177L5459.22 588.385C5409.52 549.895 5348.57 524.95 5285.37 522.905C5167.77 518.305 5070.62 597.331 5009.56 690.005C4912.41 833.795 4873.55 1020.83 4899.43 1191.82C4890.33 1379.67 4838.94 1496.67 4776.97 1496.67C4746.29 1496.67 4741.17 1440.85 4735.55 1395.92C4731.97 1349.25 4731.97 1300.69 4731.97 1253.92C4731.97 1192.84 4733.76 1131.7 4735.55 1070.57C4737.34 1011.22 4737.34 951.926 4737.34 894.471C4737.34 860.274 4735.55 828.019 4733.76 795.56C4733.76 773.989 4726.6 757.785 4706.76 746.949C4695.94 741.046 4683.81 737.953 4671.48 737.952C4660.64 737.911 4649.94 740.415 4640.24 745.262C4604.45 763.153 4607.87 804.506 4606.08 838.652C4602.5 890.79 4598.92 942.929 4598.92 995.068C4596.77 1099.67 4602.77 1204.28 4616.87 1307.95C4627.66 1370.83 4640.24 1439.17 4674.45 1493.1C4696.02 1527.24 4733.76 1557.71 4778.7 1550.6C4873.25 1541.91 4916.15 1447.09 4933.58 1320.58C4979.04 1435.28 5064.43 1538.28 5192.72 1546.67C5355.47 1555.76 5432.33 1365.92 5470.73 1237.1L5475.33 1225.81L5482.08 1264.15C5502.53 1375.02 5538.63 1555.51 5708.13 1555.51C5766.98 1555.51 5812.85 1507.66 5838.11 1458.39C5850.69 1433.39 5880.19 1355.39 5816.63 1376.5ZM5457.02 1049.35C5446.04 1117.65 5429.38 1184.91 5407.22 1250.45C5380.22 1325.02 5341.72 1413.1 5273.92 1458.34C5256.11 1468.8 5235.82 1474.3 5215.17 1474.28C5196.14 1473.99 5177.41 1469.59 5160.24 1461.38C5143.08 1453.18 5127.89 1441.36 5115.72 1426.75C5063.61 1365.71 5054.36 1275.34 5050.11 1198.56C5045.54 1110.14 5050.06 1021.48 5063.61 933.984C5074.96 850.408 5095.31 764.635 5138.16 692.356C5172.17 637.968 5221.92 597.28 5287.47 592.781C5362.07 590.532 5436.72 633.675 5477.37 696.855C5461.46 813.581 5454.65 931.368 5457.02 1049.15V1049.35Z" fill="url(#paint4_linear_987_71)"/>
<defs>
<linearGradient id="paint0_linear_987_71" x1="0.000914322" y1="1000.86" x2="2410.83" y2="1000.86" gradientUnits="userSpaceOnUse">
<stop stop-color="#D3BD8B"/>
<stop offset="1" stop-color="#B39D6F"/>
</linearGradient>
<linearGradient id="paint1_linear_987_71" x1="2283.39" y1="759.593" x2="3052.98" y2="759.593" gradientUnits="userSpaceOnUse">
<stop stop-color="#D3BD8B"/>
<stop offset="1" stop-color="#B39D6F"/>
</linearGradient>
<linearGradient id="paint2_linear_987_71" x1="2983.89" y1="1022.84" x2="4464.98" y2="1022.84" gradientUnits="userSpaceOnUse">
<stop stop-color="#D3BD8B"/>
<stop offset="1" stop-color="#B39D6F"/>
</linearGradient>
<linearGradient id="paint3_linear_987_71" x1="4600.76" y1="582.963" x2="4748.02" y2="582.963" gradientUnits="userSpaceOnUse">
<stop stop-color="#D3BD8B"/>
<stop offset="1" stop-color="#B39D6F"/>
</linearGradient>
<linearGradient id="paint4_linear_987_71" x1="4598.36" y1="1038.47" x2="5856.06" y2="1038.47" gradientUnits="userSpaceOnUse">
<stop stop-color="#D3BD8B"/>
<stop offset="1" stop-color="#B39D6F"/>
</linearGradient>
</defs>
</svg>
